<mxfile modified="2024-01-14T02:44:47.366Z" host="Electron" agent="5.0 (Windows NT 10.0; Win64; x64) AppleWebKit/537.36 (KHTML, like Gecko) draw.io/20.8.16 Chrome/106.0.5249.199 Electron/21.4.0 Safari/537.36" etag="2Q5oH0UBDNjmZ30rwYQ_" compressed="false" version="20.8.16" type="device">
  <diagram id="7jLlEumUiMLtJq0d6O2o" name="View">
    <mxGraphModel dx="810" dy="479" grid="1" gridSize="10" guides="1" tooltips="1" connect="1" arrows="1" fold="1" page="1" pageScale="1" pageWidth="827" pageHeight="1169" math="0" shadow="0">
      <root>
        <mxCell id="R8PEM5ubBwQ5RRjLXsm--0" />
        <mxCell id="R8PEM5ubBwQ5RRjLXsm--1" parent="R8PEM5ubBwQ5RRjLXsm--0" />
        <mxCell id="BNdJSEo1DCLhj9ug6YPj-13" value="&lt;span&gt;...extends or supercedes inherited tier (maybe even no new req&#39;s defined)&lt;/span&gt;" style="text;html=1;strokeColor=none;fillColor=none;align=left;verticalAlign=middle;whiteSpace=wrap;rounded=0;fontStyle=0" vertex="1" parent="R8PEM5ubBwQ5RRjLXsm--1">
          <mxGeometry x="320" y="320" width="400" height="20" as="geometry" />
        </mxCell>
        <mxCell id="BNdJSEo1DCLhj9ug6YPj-28" value="" style="shape=parallelogram;perimeter=parallelogramPerimeter;whiteSpace=wrap;html=1;fixedSize=1;size=60;" vertex="1" parent="R8PEM5ubBwQ5RRjLXsm--1">
          <mxGeometry x="80" y="410" width="220" height="50" as="geometry" />
        </mxCell>
        <mxCell id="BNdJSEo1DCLhj9ug6YPj-29" value="" style="shape=parallelogram;perimeter=parallelogramPerimeter;whiteSpace=wrap;html=1;fixedSize=1;size=36;fillColor=#fff2cc;strokeColor=#d6b656;" vertex="1" parent="R8PEM5ubBwQ5RRjLXsm--1">
          <mxGeometry x="107" y="415" width="176" height="30" as="geometry" />
        </mxCell>
        <mxCell id="BNdJSEo1DCLhj9ug6YPj-30" value="Default System" style="text;html=1;strokeColor=none;fillColor=none;align=center;verticalAlign=middle;whiteSpace=wrap;rounded=0;" vertex="1" parent="R8PEM5ubBwQ5RRjLXsm--1">
          <mxGeometry x="104" y="450" width="116" height="10" as="geometry" />
        </mxCell>
        <mxCell id="BNdJSEo1DCLhj9ug6YPj-31" value="" style="shape=parallelogram;perimeter=parallelogramPerimeter;whiteSpace=wrap;html=1;fixedSize=1;size=60;" vertex="1" parent="R8PEM5ubBwQ5RRjLXsm--1">
          <mxGeometry x="80" y="380" width="220" height="50" as="geometry" />
        </mxCell>
        <mxCell id="BNdJSEo1DCLhj9ug6YPj-32" value="" style="shape=parallelogram;perimeter=parallelogramPerimeter;whiteSpace=wrap;html=1;fixedSize=1;size=36;fillColor=#fff2cc;strokeColor=#d6b656;" vertex="1" parent="R8PEM5ubBwQ5RRjLXsm--1">
          <mxGeometry x="107" y="385" width="126" height="30" as="geometry" />
        </mxCell>
        <mxCell id="BNdJSEo1DCLhj9ug6YPj-33" value="Sector Specific" style="text;html=1;strokeColor=none;fillColor=none;align=center;verticalAlign=middle;whiteSpace=wrap;rounded=0;" vertex="1" parent="R8PEM5ubBwQ5RRjLXsm--1">
          <mxGeometry x="104" y="420" width="116" height="10" as="geometry" />
        </mxCell>
        <mxCell id="BNdJSEo1DCLhj9ug6YPj-34" value="" style="shape=parallelogram;perimeter=parallelogramPerimeter;whiteSpace=wrap;html=1;fixedSize=1;size=60;" vertex="1" parent="R8PEM5ubBwQ5RRjLXsm--1">
          <mxGeometry x="80" y="350" width="220" height="50" as="geometry" />
        </mxCell>
        <mxCell id="BNdJSEo1DCLhj9ug6YPj-35" value="" style="shape=parallelogram;perimeter=parallelogramPerimeter;whiteSpace=wrap;html=1;fixedSize=1;size=36;fillColor=#fff2cc;strokeColor=#d6b656;" vertex="1" parent="R8PEM5ubBwQ5RRjLXsm--1">
          <mxGeometry x="107" y="355" width="86" height="30" as="geometry" />
        </mxCell>
        <mxCell id="BNdJSEo1DCLhj9ug6YPj-36" value="Organisation Specific" style="text;html=1;strokeColor=none;fillColor=none;align=center;verticalAlign=middle;whiteSpace=wrap;rounded=0;" vertex="1" parent="R8PEM5ubBwQ5RRjLXsm--1">
          <mxGeometry x="104" y="390" width="116" height="10" as="geometry" />
        </mxCell>
        <mxCell id="BNdJSEo1DCLhj9ug6YPj-38" value="" style="shape=parallelogram;perimeter=parallelogramPerimeter;whiteSpace=wrap;html=1;fixedSize=1;size=60;" vertex="1" parent="R8PEM5ubBwQ5RRjLXsm--1">
          <mxGeometry x="80" y="320" width="220" height="50" as="geometry" />
        </mxCell>
        <mxCell id="BNdJSEo1DCLhj9ug6YPj-39" value="" style="shape=parallelogram;perimeter=parallelogramPerimeter;whiteSpace=wrap;html=1;fixedSize=1;size=36;fillColor=#fff2cc;strokeColor=#d6b656;" vertex="1" parent="R8PEM5ubBwQ5RRjLXsm--1">
          <mxGeometry x="107" y="325" width="46" height="30" as="geometry" />
        </mxCell>
        <mxCell id="BNdJSEo1DCLhj9ug6YPj-40" value="Project Specific" style="text;html=1;strokeColor=none;fillColor=none;align=center;verticalAlign=middle;whiteSpace=wrap;rounded=0;" vertex="1" parent="R8PEM5ubBwQ5RRjLXsm--1">
          <mxGeometry x="104" y="360" width="116" height="10" as="geometry" />
        </mxCell>
        <mxCell id="BNdJSEo1DCLhj9ug6YPj-41" value="&lt;span&gt;...extends or supercedes inherited tier (fewer still)&lt;/span&gt;" style="text;html=1;strokeColor=none;fillColor=none;align=left;verticalAlign=middle;whiteSpace=wrap;rounded=0;fontStyle=0" vertex="1" parent="R8PEM5ubBwQ5RRjLXsm--1">
          <mxGeometry x="320" y="350" width="320" height="20" as="geometry" />
        </mxCell>
        <mxCell id="BNdJSEo1DCLhj9ug6YPj-42" value="&lt;span&gt;...extends or supercedes inherited tier (fewer)&lt;/span&gt;" style="text;html=1;strokeColor=none;fillColor=none;align=left;verticalAlign=middle;whiteSpace=wrap;rounded=0;fontStyle=0" vertex="1" parent="R8PEM5ubBwQ5RRjLXsm--1">
          <mxGeometry x="320" y="380" width="320" height="20" as="geometry" />
        </mxCell>
        <mxCell id="BNdJSEo1DCLhj9ug6YPj-43" value="&lt;span&gt;...simply mature industry standard mature requirements&amp;nbsp;&lt;/span&gt;" style="text;html=1;strokeColor=none;fillColor=none;align=left;verticalAlign=middle;whiteSpace=wrap;rounded=0;fontStyle=0" vertex="1" parent="R8PEM5ubBwQ5RRjLXsm--1">
          <mxGeometry x="320" y="410" width="320" height="20" as="geometry" />
        </mxCell>
      </root>
    </mxGraphModel>
  </diagram>
</mxfile>
